<svg width="50" height="50" viewBox="0 0 50 50" fill="none" xmlns="http://www.w3.org/2000/svg">
<g clip-path="url(#clip0_2_3)">
<rect width="50" height="50" rx="15" fill="#D72323"/>
<path d="M25.52 37.36C24.464 37.36 23.408 37.276 22.352 37.108C21.296 36.964 20.3 36.736 19.364 36.424C18.428 36.088 17.588 35.68 16.844 35.2C16.412 34.912 16.112 34.564 15.944 34.156C15.776 33.748 15.716 33.352 15.764 32.968C15.836 32.56 15.992 32.212 16.232 31.924C16.496 31.612 16.82 31.42 17.204 31.348C17.588 31.276 18.008 31.384 18.464 31.672C19.52 32.296 20.636 32.752 21.812 33.04C22.988 33.328 24.224 33.472 25.52 33.472C27.416 33.472 28.796 33.16 29.66 32.536C30.524 31.888 30.956 31.06 30.956 30.052C30.956 29.212 30.644 28.552 30.02 28.072C29.42 27.592 28.376 27.196 26.888 26.884L22.928 26.056C20.648 25.576 18.944 24.772 17.816 23.644C16.712 22.492 16.16 20.98 16.16 19.108C16.16 17.932 16.4 16.864 16.88 15.904C17.36 14.944 18.032 14.116 18.896 13.42C19.784 12.724 20.828 12.196 22.028 11.836C23.252 11.452 24.596 11.26 26.06 11.26C27.5 11.26 28.868 11.44 30.164 11.8C31.46 12.16 32.624 12.688 33.656 13.384C34.04 13.648 34.292 13.972 34.412 14.356C34.556 14.74 34.592 15.124 34.52 15.508C34.448 15.868 34.28 16.18 34.016 16.444C33.752 16.708 33.416 16.864 33.008 16.912C32.624 16.96 32.18 16.84 31.676 16.552C30.788 16.048 29.888 15.688 28.976 15.472C28.064 15.256 27.08 15.148 26.024 15.148C24.92 15.148 23.972 15.304 23.18 15.616C22.388 15.928 21.776 16.372 21.344 16.948C20.936 17.5 20.732 18.16 20.732 18.928C20.732 19.792 21.02 20.488 21.596 21.016C22.172 21.52 23.156 21.916 24.548 22.204L28.472 23.032C30.848 23.536 32.612 24.328 33.764 25.408C34.94 26.488 35.528 27.928 35.528 29.728C35.528 30.88 35.288 31.924 34.808 32.86C34.352 33.796 33.68 34.6 32.792 35.272C31.928 35.944 30.884 36.46 29.66 36.82C28.436 37.18 27.056 37.36 25.52 37.36Z" fill="white"/>
</g>
<defs>
<clipPath id="clip0_2_3">
<rect width="50" height="50" fill="white"/>
</clipPath>
</defs>
</svg>
